# xmcd CD database file
#
# Track frame offsets:
#	150
#	19293
#	38290
#	55979
#	77284
#	90293
#	113772
#	123930
#	132683
#	149053
#	170796
#	186633
#
# Disc length: 2597 seconds
#
# Revision: 0
# Processed by: cddbd v1.5PL3 Copyright (c) Steve Scherf et al.
# Submitted via: CDex 1.60beta1
#
DISCID=a40a230c
DTITLE=Dixieland Kings - The Best Of Dixieland [CD1]
DYEAR=1900
DGENRE=Jazz
TTITLE0=Way Down Yonder In New Orleans
TTITLE1=Bill Bailey Come Home
TTITLE2=Put Your Arms Around Me Honey
TTITLE3=The Sheik Of Araby
TTITLE4=Ain't She Sweet
TTITLE5=Muskrat Ramble
TTITLE6=For Me And My Gal
TTITLE7=By The Light Of The Silvery Moon
TTITLE8=Give My Regards To Broadway
TTITLE9=California Here I Come
TTITLE10=Glow Little Glow Worm
TTITLE11=Shine On Harvest Mood
EXTD=
EXTT0=
EXTT1=
EXTT2=
EXTT3=
EXTT4=
EXTT5=
EXTT6=
EXTT7=
EXTT8=
EXTT9=
EXTT10=
EXTT11=
PLAYORDER=
